<svg width="71" height="70" viewBox="0 0 71 70" fill="none" xmlns="http://www.w3.org/2000/svg">
<g clip-path="url(#clip0_47_872)">
<path d="M65.6156 16H58.6156V11.3333C58.6156 10.7145 58.3697 10.121 57.9321 9.68342C57.4946 9.24583 56.9011 9 56.2822 9H14.2822C13.6634 9 13.0699 9.24583 12.6323 9.68342C12.1947 10.121 11.9489 10.7145 11.9489 11.3333V16H4.94889C3.71122 16 2.52423 16.4917 1.64906 17.3668C0.773892 18.242 0.282227 19.429 0.282227 20.6667V25.3333C0.282227 28.4275 1.51139 31.395 3.69931 33.5829C4.78266 34.6663 6.06879 35.5256 7.48425 36.1119C8.89972 36.6982 10.4168 37 11.9489 37H13.0135C14.3879 41.3558 17.0086 45.2134 20.5516 48.096C24.0946 50.9786 28.4046 52.7598 32.9489 53.2196V60.3333H25.9489C25.3301 60.3333 24.7366 60.5792 24.299 61.0167C23.8614 61.4543 23.6156 62.0478 23.6156 62.6667C23.6156 63.2855 23.8614 63.879 24.299 64.3166C24.7366 64.7542 25.3301 65 25.9489 65H44.6156C45.2344 65 45.8279 64.7542 46.2655 64.3166C46.7031 63.879 46.9489 63.2855 46.9489 62.6667C46.9489 62.0478 46.7031 61.4543 46.2655 61.0167C45.8279 60.5792 45.2344 60.3333 44.6156 60.3333H37.6156V53.2108C46.9314 52.2687 54.6606 45.7325 57.4722 37H58.6156C61.7098 37 64.6772 35.7708 66.8651 33.5829C69.0531 31.395 70.2822 28.4275 70.2822 25.3333V20.6667C70.2822 19.429 69.7906 18.242 68.9154 17.3668C68.0402 16.4917 66.8532 16 65.6156 16ZM11.9489 32.3333C10.0924 32.3333 8.3119 31.5958 6.99915 30.2831C5.68639 28.9703 4.94889 27.1898 4.94889 25.3333V20.6667H11.9489V30C11.9489 30.7778 11.9868 31.5556 12.0626 32.3333H11.9489ZM65.6156 25.3333C65.6156 27.1898 64.8781 28.9703 63.5653 30.2831C62.2526 31.5958 60.4721 32.3333 58.6156 32.3333H58.4697C58.5655 31.4713 58.6142 30.6048 58.6156 29.7375V20.6667H65.6156V25.3333Z" fill="#0942BF"/>
</g>
<defs>
<clipPath id="clip0_47_872">
<rect width="70" height="70" fill="white" transform="translate(0.282227)"/>
</clipPath>
</defs>
</svg>
