<svg width="71" height="70" viewBox="0 0 71 70" fill="none" xmlns="http://www.w3.org/2000/svg">
<path d="M47.3422 29.6154C47.3422 31.2128 46.8707 32.7744 45.9872 34.1027C45.1038 35.4309 43.8481 36.4662 42.379 37.0775C40.9099 37.6888 39.2933 37.8488 37.7337 37.5371C36.1741 37.2255 34.7415 36.4562 33.6171 35.3266C32.4927 34.1971 31.7269 32.7579 31.4167 31.1911C31.1065 29.6243 31.2657 28.0003 31.8742 26.5245C32.4828 25.0486 33.5133 23.7872 34.8354 22.8997C36.1576 22.0122 37.7121 21.5385 39.3022 21.5385C41.4346 21.5385 43.4796 22.3894 44.9874 23.9041C46.4952 25.4189 47.3422 27.4733 47.3422 29.6154ZM68.7822 5.38462V64.6154C68.7822 66.0435 68.2175 67.4131 67.2123 68.4229C66.2071 69.4327 64.8438 70 63.4222 70H15.1822C13.7607 70 12.3973 69.4327 11.3921 68.4229C10.3869 67.4131 9.82223 66.0435 9.82223 64.6154V56.5385H4.46223C3.75145 56.5385 3.06978 56.2548 2.56718 55.7499C2.06458 55.245 1.78223 54.5602 1.78223 53.8462C1.78223 53.1321 2.06458 52.4473 2.56718 51.9424C3.06978 51.4375 3.75145 51.1538 4.46223 51.1538H9.82223V37.6923H4.46223C3.75145 37.6923 3.06978 37.4087 2.56718 36.9038C2.06458 36.3988 1.78223 35.714 1.78223 35C1.78223 34.286 2.06458 33.6012 2.56718 33.0963C3.06978 32.5913 3.75145 32.3077 4.46223 32.3077H9.82223V18.8462H4.46223C3.75145 18.8462 3.06978 18.5625 2.56718 18.0576C2.06458 17.5527 1.78223 16.8679 1.78223 16.1538C1.78223 15.4398 2.06458 14.755 2.56718 14.2501C3.06978 13.7452 3.75145 13.4615 4.46223 13.4615H9.82223V5.38462C9.82223 3.95653 10.3869 2.58693 11.3921 1.57712C12.3973 0.567306 13.7607 0 15.1822 0H63.4222C64.8438 0 66.2071 0.567306 67.2123 1.57712C68.2175 2.58693 68.7822 3.95653 68.7822 5.38462ZM57.5262 46.8462C55.1531 43.6499 51.9886 41.1333 48.3472 39.5466C50.3428 37.7163 51.7409 35.3227 52.3581 32.6799C52.9753 30.0371 52.7827 27.2686 51.8056 24.7377C50.8285 22.2068 49.1126 20.0318 46.883 18.4981C44.6535 16.9644 42.0144 16.1437 39.3123 16.1437C36.6101 16.1437 33.9711 16.9644 31.7415 18.4981C29.512 20.0318 27.796 22.2068 26.819 24.7377C25.8419 27.2686 25.6493 30.0371 26.2665 32.6799C26.8837 35.3227 28.2818 37.7163 30.2773 39.5466C26.6286 41.1303 23.4569 43.6471 21.0782 46.8462C20.8671 47.129 20.7134 47.4509 20.6261 47.7934C20.5387 48.1359 20.5194 48.4923 20.5692 48.8423C20.6189 49.1923 20.7368 49.529 20.9162 49.8333C21.0955 50.1375 21.3327 50.4032 21.6142 50.6154C21.8958 50.8275 22.2162 50.9819 22.5571 51.0696C22.898 51.1574 23.2528 51.1768 23.6012 51.1268C23.9496 51.0768 24.2848 50.9583 24.5877 50.7782C24.8905 50.5981 25.1551 50.3598 25.3662 50.0769C26.9888 47.9035 29.0929 46.1394 31.5118 44.9244C33.9306 43.7095 36.5979 43.0769 39.3022 43.0769C42.0066 43.0769 44.6738 43.7095 47.0927 44.9244C49.5115 46.1394 51.6156 47.9035 53.2382 50.0769C53.6647 50.6482 54.2996 51.0258 55.0032 51.1268C55.7069 51.2278 56.4216 51.0438 56.9902 50.6154C57.5589 50.187 57.9348 49.5492 58.0353 48.8423C58.1358 48.1354 57.9527 47.4174 57.5262 46.8462Z" fill="#0942BF"/>
</svg>
