<svg width="71" height="70" viewBox="0 0 71 70" fill="none" xmlns="http://www.w3.org/2000/svg">
<g clip-path="url(#clip0_47_845)">
<path d="M64.4489 0H6.11556C4.56846 0 3.08473 0.614581 1.99077 1.70854C0.896808 2.80251 0.282227 4.28624 0.282227 5.83333V64.1667C0.282227 65.7138 0.896808 67.1975 1.99077 68.2915C3.08473 69.3854 4.56846 70 6.11556 70H64.4489C65.996 70 67.4797 69.3854 68.5737 68.2915C69.6676 67.1975 70.2822 65.7138 70.2822 64.1667V5.83333C70.2822 4.28624 69.6676 2.80251 68.5737 1.70854C67.4797 0.614581 65.996 0 64.4489 0ZM64.4489 64.1667H6.11556V49.5833H16.5755L23.6156 56.6271C24.1559 57.17 24.7986 57.6003 25.5064 57.8932C26.2142 58.186 26.973 58.3357 27.739 58.3333H42.8255C43.5918 58.3358 44.351 58.1859 45.0588 57.8923C45.7667 57.5988 46.4092 57.1675 46.9489 56.6234L53.989 49.5833H64.4489V64.1667Z" fill="#0942BF"/>
</g>
<defs>
<clipPath id="clip0_47_845">
<rect width="70" height="70" fill="white" transform="translate(0.282227)"/>
</clipPath>
</defs>
</svg>
