<svg width="71" height="70" viewBox="0 0 71 70" fill="none" xmlns="http://www.w3.org/2000/svg">
<g clip-path="url(#clip0_47_854)">
<path d="M16.6481 38.9254C16.656 39.0824 16.6317 39.2393 16.5766 39.3866C16.5215 39.534 16.4368 39.6687 16.3277 39.7825C16.2185 39.8963 16.0872 39.9869 15.9417 40.0487C15.7962 40.1105 15.6395 40.1423 15.4813 40.1421H2.61133C2.08461 40.1429 1.57312 39.9667 1.16002 39.6422C0.746929 39.3177 0.456526 38.8639 0.336041 38.3547C0.261018 38.0062 0.264477 37.6455 0.34617 37.2984C0.427862 36.9513 0.585771 36.6265 0.8086 36.3471C2.86747 33.6355 5.59921 31.5005 8.73709 30.1506C7.35945 28.9032 6.30284 27.3461 5.65576 25.6098C5.00867 23.8734 4.78995 22.0084 5.01791 20.1708C5.24587 18.3333 5.91388 16.5767 6.96598 15.0483C8.01808 13.5198 9.42365 12.264 11.065 11.386C12.7063 10.5079 14.5355 10.0332 16.3996 10.0017C18.2636 9.97012 20.1081 10.3826 21.7786 11.2045C23.4491 12.0265 24.8969 13.234 26.0009 14.726C27.1049 16.2179 27.8328 17.9508 28.1237 19.7796C28.1612 20.0255 28.1169 20.2769 27.9973 20.4955C27.8778 20.714 27.6897 20.8879 27.4615 20.9905C24.2247 22.4766 21.4835 24.8511 19.5613 27.8338C17.6391 30.8166 16.6161 34.2832 16.6131 37.8246C16.6131 38.1954 16.6131 38.5604 16.6481 38.9254ZM69.738 36.3442C67.6839 33.6358 64.9584 31.5019 61.827 30.1506C63.2047 28.9032 64.2613 27.3461 64.9084 25.6098C65.5555 23.8734 65.7742 22.0084 65.5462 20.1708C65.3183 18.3333 64.6503 16.5767 63.5981 15.0483C62.546 13.5198 61.1405 12.264 59.4992 11.386C57.8579 10.5079 56.0286 10.0332 54.1646 10.0017C52.3005 9.97012 50.456 10.3826 48.7855 11.2045C47.115 12.0265 45.6672 13.234 44.5632 14.726C43.4593 16.2179 42.7314 17.9508 42.4405 19.7796C42.4029 20.0255 42.4473 20.2769 42.5668 20.4955C42.6863 20.714 42.8745 20.8879 43.1026 20.9905C46.3394 22.4766 49.0806 24.8511 51.0028 27.8338C52.925 30.8166 53.948 34.2832 53.9511 37.8246C53.9511 38.1954 53.9511 38.5604 53.9161 38.9254C53.9081 39.0824 53.9325 39.2393 53.9876 39.3866C54.0426 39.534 54.1273 39.6687 54.2365 39.7825C54.3456 39.8963 54.4769 39.9869 54.6224 40.0487C54.768 40.1105 54.9246 40.1423 55.0829 40.1421H67.9528C68.4795 40.1429 68.991 39.9667 69.4041 39.6422C69.8172 39.3177 70.1076 38.8639 70.2281 38.3547C70.3036 38.0055 70.3001 37.6441 70.2179 37.2964C70.1356 36.9487 69.9767 36.6235 69.7526 36.3442H69.738ZM43.7765 48.8532C46.1 47.0859 47.8076 44.6401 48.6591 41.8593C49.5106 39.0785 49.4633 36.1026 48.5239 33.3499C47.5844 30.5972 45.8 28.2061 43.4215 26.5125C41.0429 24.819 38.1898 23.9082 35.2631 23.9082C32.3364 23.9082 29.4833 24.819 27.1047 26.5125C24.7262 28.2061 22.9418 30.5972 22.0023 33.3499C21.0629 36.1026 21.0156 39.0785 21.8671 41.8593C22.7186 44.6401 24.4262 47.0859 26.7498 48.8532C22.6266 50.6273 19.1838 53.6658 16.9252 57.5237C16.7204 57.876 16.6125 58.2757 16.6125 58.6826C16.6126 59.0894 16.7204 59.4891 16.9253 59.8415C17.1302 60.1938 17.4249 60.4863 17.7797 60.6897C18.1345 60.8931 18.537 61.0001 18.9467 61H51.6174C52.0271 61.0001 52.4296 60.8931 52.7844 60.6897C53.1393 60.4863 53.4339 60.1938 53.6388 59.8415C53.8437 59.4891 53.9516 59.0894 53.9516 58.6826C53.9516 58.2757 53.8438 57.876 53.6389 57.5237C51.3755 53.6633 47.9263 50.6246 43.7969 48.8532H43.7765Z" fill="#0942BF"/>
</g>
<defs>
<clipPath id="clip0_47_854">
<rect width="70" height="70" fill="white" transform="translate(0.282227)"/>
</clipPath>
</defs>
</svg>
