<?xml version="1.0" encoding="UTF-8"?>
<svg id="Camada_2" data-name="Camada 2" xmlns="http://www.w3.org/2000/svg" viewBox="0 0 1742.97 500">
  <defs>
    <style>
      .cls-1 {
        fill: #fff;
      }

      .cls-2 {
        fill: #042698;
      }
    </style>
  </defs>
  <g id="Camada_1-2" data-name="Camada 1">
    <g>
      <g>
        <path class="cls-2" d="M353.38,396.52c-2.14,2.14-3.36,5.14-3.36,8.21v83.63c0,6.36,5.21,11.57,11.57,11.57h126.84c6.36,0,11.57-5.21,11.57-11.57v-210.47c0-10.28-12.5-15.5-19.79-8.21l-126.84,126.84Z"/>
        <path class="cls-2" d="M0,11.57v126.84c0,6.36,5.21,11.57,11.57,11.57h210.47c10.28,0,15.5,12.5,8.21,19.78L3.36,396.59c-2.14,2.14-3.36,5.14-3.36,8.21v83.63c0,6.36,5.21,11.57,11.57,11.57h133.62c3.07,0,6-1.21,8.21-3.36L496.57,153.48c2.14-2.14,3.36-5.14,3.36-8.21V11.57c0-6.36-5.21-11.57-11.57-11.57H11.57C5.21,0,0,5.21,0,11.57Z"/>
      </g>
      <g>
        <g>
          <path class="cls-1" d="M701.39,90.91c64.97,0,102.03,24.98,105.19,71.05.24,3.55-2.61,6.55-6.17,6.55h-53.57c-2.99,0-5.48-2.15-6.08-5.08-3.03-14.74-19.58-22.02-42.3-22.02-24.21,0-37.42,8.42-37.42,20.78,0,13.42,17.12,16.05,37.42,17.62,47.2,3.95,111.76,2.63,111.76,61.03,0,51.82-37.42,77.34-106.63,77.34s-106.68-25.72-109.83-72.1c-.24-3.55,2.61-6.55,6.17-6.55h53.76c3.02,0,5.54,2.19,6.09,5.16,2.86,15.26,19.02,22.99,47.96,22.99,25.43,0,37.42-6.05,37.42-18.15,0-16.05-20.79-18.41-47.69-20.25-42.8-2.89-101.25-4.47-101.25-66.29,0-45.77,38.4-72.08,105.16-72.08Z"/>
          <path class="cls-1" d="M832.54,94.07h181.58c3.41,0,6.18,2.77,6.18,6.18v42.88c0,3.41-2.77,6.18-6.18,6.18h-117.01c-3.41,0-6.18,2.77-6.18,6.18v16.05c0,3.41,2.77,6.18,6.18,6.18h95c3.41,0,6.18,2.77,6.18,6.18v36.57c0,3.41-2.77,6.18-6.18,6.18h-95c-3.41,0-6.18,2.77-6.18,6.18v20.78c0,3.41,2.77,6.18,6.18,6.18h117.01c3.41,0,6.18,2.77,6.18,6.18v42.88c0,3.41-2.77,6.18-6.18,6.18h-181.58c-3.41,0-6.18-2.77-6.18-6.18V100.25c0-3.41,2.77-6.18,6.18-6.18Z"/>
          <path class="cls-1" d="M1106.6,98.23l53.13,153.72c.86,2.49,3.21,4.16,5.84,4.16h0c2.63,0,4.98-1.67,5.84-4.16l53.13-153.72c.86-2.49,3.21-4.16,5.84-4.16h55.74c4.29,0,7.27,4.26,5.81,8.29l-75.96,208.6c-.89,2.44-3.21,4.07-5.81,4.07h-88.93c-2.6,0-4.92-1.62-5.81-4.07l-75.96-208.6c-1.47-4.03,1.52-8.29,5.81-8.29h55.49c2.63,0,4.98,1.67,5.84,4.16Z"/>
          <path class="cls-1" d="M1317.26,94.07h181.58c3.41,0,6.18,2.77,6.18,6.18v42.88c0,3.41-2.77,6.18-6.18,6.18h-117.01c-3.41,0-6.18,2.77-6.18,6.18v16.05c0,3.41,2.77,6.18,6.18,6.18h95c3.41,0,6.18,2.77,6.18,6.18v36.57c0,3.41-2.77,6.18-6.18,6.18h-95c-3.41,0-6.18,2.77-6.18,6.18v20.78c0,3.41,2.77,6.18,6.18,6.18h117.01c3.41,0,6.18,2.77,6.18,6.18v42.88c0,3.41-2.77,6.18-6.18,6.18h-181.58c-3.41,0-6.18-2.77-6.18-6.18V100.25c0-3.41,2.77-6.18,6.18-6.18Z"/>
          <path class="cls-1" d="M1527.33,94.07h71.23c2.2,0,4.23,1.16,5.33,3.06l65.93,112.73c3.18,5.44,11.51,3.18,11.51-3.12v-106.49c0-3.41,2.77-6.18,6.18-6.18h49.27c3.41,0,6.18,2.77,6.18,6.18v208.6c0,3.41-2.77,6.18-6.18,6.18h-71.21c-2.2,0-4.24-1.17-5.34-3.08l-65.93-113.59c-3.17-5.46-11.52-3.21-11.52,3.1v107.39c0,3.41-2.77,6.18-6.18,6.18h-49.27c-3.41,0-6.18-2.77-6.18-6.18V100.25c0-3.41,2.77-6.18,6.18-6.18Z"/>
        </g>
        <g>
          <path class="cls-1" d="M634.68,364.66h19.94c1.37,0,2.64.09,3.8.27,2.7.41,4.97,1.33,6.82,2.76,1.85,1.43,3.24,3.24,4.16,5.43.93,2.19,1.39,4.64,1.39,7.33s-.47,5.17-1.41,7.35c-.94,2.18-2.33,3.99-4.18,5.41-1.85,1.43-4.11,2.36-6.78,2.79-1.17.18-2.43.27-3.8.27h-12.78v17.72h-7.16v-49.35ZM654.35,389.51c1.19,0,2.23-.1,3.12-.31,2.03-.5,3.55-1.58,4.54-3.22.99-1.64,1.49-3.48,1.49-5.52s-.5-3.87-1.49-5.52c-.99-1.64-2.51-2.71-4.54-3.19-.85-.23-1.88-.34-3.12-.34h-12.51v18.09h12.51Z"/>
          <path class="cls-1" d="M739.33,364.66h31.53v6.75h-24.36v13.84h20.25v6.75h-20.25v15.25h24.36v6.75h-31.53v-49.35Z"/>
          <path class="cls-1" d="M840.77,364.66h19.94c1.37,0,2.64.09,3.8.27,2.7.41,4.97,1.33,6.82,2.76,1.85,1.43,3.24,3.24,4.16,5.43.93,2.19,1.39,4.64,1.39,7.33,0,3.36-.71,6.31-2.14,8.84-1.43,2.54-3.51,4.4-6.25,5.59l9.32,19.12h-8.19l-8.6-17.72h-13.09v17.72h-7.16v-49.35ZM860.44,389.51c1.19,0,2.23-.1,3.12-.31,2.03-.5,3.55-1.58,4.54-3.22s1.49-3.48,1.49-5.52-.5-3.87-1.49-5.52-2.51-2.71-4.54-3.19c-.85-.23-1.88-.34-3.12-.34h-12.51v18.09h12.51Z"/>
          <path class="cls-1" d="M947.03,364.66h29.23v7.16h-22.07v13.91h17.96v7.2h-17.96v21.07h-7.16v-49.35Z"/>
          <path class="cls-1" d="M1052.16,411.82c-3.52-2.15-6.2-5.16-8.04-9.03-1.84-3.87-2.76-8.36-2.76-13.45s.92-9.58,2.76-13.45c1.84-3.87,4.52-6.88,8.04-9.03,3.52-2.15,7.7-3.22,12.54-3.22s9.02,1.07,12.52,3.22c3.51,2.15,6.18,5.16,8.02,9.03,1.84,3.87,2.76,8.36,2.76,13.45s-.92,9.58-2.76,13.45c-1.84,3.87-4.51,6.88-8.02,9.03-3.51,2.15-7.68,3.22-12.52,3.22s-9.02-1.07-12.54-3.22ZM1050.78,399.38c1.2,2.81,2.99,4.99,5.36,6.53,2.38,1.54,5.3,2.31,8.77,2.31s6.23-.78,8.55-2.35c2.32-1.56,4.05-3.76,5.21-6.6,1.15-2.83,1.73-6.14,1.73-9.94s-.59-7.17-1.78-10.01c-1.19-2.83-2.97-5.02-5.35-6.56-2.38-1.54-5.3-2.31-8.77-2.31s-6.27.79-8.58,2.36c-2.32,1.58-4.06,3.79-5.21,6.63-1.15,2.84-1.73,6.17-1.73,9.99s.6,7.13,1.8,9.94Z"/>
          <path class="cls-1" d="M1156.54,364.66h19.94c1.37,0,2.64.09,3.8.27,2.7.41,4.97,1.33,6.82,2.76,1.85,1.43,3.24,3.24,4.16,5.43.93,2.19,1.39,4.64,1.39,7.33,0,3.36-.71,6.31-2.14,8.84-1.43,2.54-3.51,4.4-6.25,5.59l9.32,19.12h-8.19l-8.6-17.72h-13.09v17.72h-7.16v-49.35ZM1176.21,389.51c1.19,0,2.23-.1,3.12-.31,2.03-.5,3.55-1.58,4.54-3.22.99-1.64,1.49-3.48,1.49-5.52s-.5-3.87-1.49-5.52c-.99-1.64-2.51-2.71-4.54-3.19-.85-.23-1.88-.34-3.12-.34h-12.51v18.09h12.51Z"/>
          <path class="cls-1" d="M1262.81,364.66h6.48l17.89,37.11,17.79-37.11h6.55v49.31h-6.78v-33.75l-15.93,33.79h-3.26l-15.97-33.79v33.79h-6.75v-49.35Z"/>
          <path class="cls-1" d="M1395.39,364.66h10.31l16.04,49.35h-7.44l-3.67-11.14h-20.25l-3.6,11.14h-7.44l16.04-49.35ZM1408.45,396.16l-7.98-24.33-7.88,24.33h15.87Z"/>
          <path class="cls-1" d="M1489.59,364.66h7.26l24.3,36.67v-36.67h7.26v49.35h-7.26l-24.3-36.7v36.7h-7.26v-49.35Z"/>
          <path class="cls-1" d="M1607.75,411.82c-3.52-2.15-6.2-5.16-8.04-9.03-1.84-3.87-2.76-8.36-2.76-13.45s.92-9.58,2.76-13.45c1.84-3.87,4.52-6.88,8.04-9.03,3.52-2.15,7.7-3.22,12.54-3.22,3.72,0,7.06.65,10.02,1.94,2.96,1.29,5.44,3.13,7.44,5.52,2,2.39,3.49,5.21,4.47,8.48l-7.26,1.95c-1.01-3.52-2.74-6.24-5.21-8.17-2.47-1.93-5.62-2.9-9.46-2.9-3.45,0-6.35.79-8.7,2.36-2.35,1.58-4.12,3.79-5.29,6.65-1.18,2.86-1.76,6.21-1.76,10.07s.59,7.05,1.78,9.85c1.19,2.8,2.96,4.97,5.33,6.51,2.36,1.54,5.25,2.31,8.65,2.31,3.84,0,6.99-.96,9.46-2.9,2.47-1.93,4.2-4.65,5.21-8.17l7.26,1.95c-.98,3.27-2.47,6.09-4.47,8.48-2,2.39-4.48,4.23-7.44,5.52-2.96,1.29-6.3,1.94-10.02,1.94-4.84,0-9.02-1.07-12.54-3.22Z"/>
          <path class="cls-1" d="M1711.44,364.66h31.53v6.75h-24.36v13.84h20.25v6.75h-20.25v15.25h24.36v6.75h-31.53v-49.35Z"/>
        </g>
      </g>
    </g>
  </g>
</svg>