<svg width="71" height="70" viewBox="0 0 71 70" fill="none" xmlns="http://www.w3.org/2000/svg">
<path d="M70.2415 52.8778C69.6174 57.6205 67.2882 61.9738 63.689 65.1247C60.0898 68.2755 55.4667 70.0085 50.6831 70C22.8926 70 0.282258 47.3898 0.282258 19.5995C0.273683 14.816 2.00669 10.1929 5.15761 6.59369C8.30852 2.99451 12.6619 0.665372 17.4046 0.0412921C18.6039 -0.105146 19.8184 0.14021 20.8668 0.740733C21.9152 1.34126 22.7412 2.26474 23.2217 3.37332L30.6138 19.876V19.918C30.9816 20.7666 31.1335 21.6931 31.0559 22.6147C30.9784 23.5363 30.6737 24.4244 30.1693 25.1995C30.1063 25.294 30.0398 25.3815 29.9698 25.469L22.6826 34.1071C25.3042 39.4342 30.8763 44.9572 36.2734 47.5858L44.7925 40.3372C44.8762 40.2669 44.9638 40.2014 45.055 40.1412C45.8296 39.6246 46.7207 39.3092 47.6478 39.2237C48.5748 39.1381 49.5086 39.2851 50.3646 39.6512L50.4101 39.6722L66.8989 47.0607C68.0095 47.5395 68.9352 48.3648 69.5377 49.4133C70.1402 50.4619 70.3871 51.6773 70.2415 52.8778Z" fill="#0942BF"/>
</svg>
