<svg width="71" height="70" viewBox="0 0 71 70" fill="none" xmlns="http://www.w3.org/2000/svg">
<path d="M35.2822 0C28.3599 0 21.593 2.05271 15.8373 5.89856C10.0816 9.74441 5.59552 15.2107 2.94646 21.6061C0.297392 28.0015 -0.395725 35.0388 0.954757 41.8282C2.30524 48.6175 5.63867 54.8539 10.5335 59.7487C15.4283 64.6436 21.6647 67.977 28.4541 69.3275C35.2434 70.6779 42.2807 69.9848 48.6761 67.3358C55.0716 64.6867 60.5378 60.2007 64.3837 54.4449C68.2295 48.6892 70.2822 41.9223 70.2822 35C70.2715 25.7207 66.5806 16.8245 60.0192 10.2631C53.4577 3.70161 44.5615 0.0106884 35.2822 0ZM61.6534 21.5385H49.6558C48.1449 15.9954 45.5985 10.7883 42.151 6.19231C46.3164 7.19293 50.2161 9.08242 53.5829 11.7312C56.9497 14.3801 59.7039 17.7256 61.6567 21.5385H61.6534ZM64.8976 35C64.9 37.7312 64.5228 40.4495 63.7769 43.0769H50.8168C51.6425 37.7239 51.6425 32.276 50.8168 26.9231H63.7769C64.5228 29.5505 64.9 32.2688 64.8976 35ZM35.2822 6.39423C39.3137 10.7104 42.3064 15.8901 44.0322 21.5385H26.5322C28.2563 15.8894 31.2492 10.7093 35.2822 6.39423ZM26.5322 48.4615H44.0322C42.3082 54.1106 39.3152 59.2907 35.2822 63.6058C31.2508 59.2896 28.258 54.1099 26.5322 48.4615ZM25.2197 43.0769C24.2954 37.732 24.2954 32.268 25.2197 26.9231H45.3717C46.296 32.268 46.296 37.732 45.3717 43.0769H25.2197ZM42.1644 63.8077C45.6119 59.2117 48.1584 54.0046 49.6692 48.4615H61.6702C59.7159 52.2759 56.9596 55.6223 53.5904 58.2712C50.2212 60.9201 46.3188 62.8088 42.151 63.8077H42.1644Z" fill="#0942BF"/>
</svg>
